<svg width="546" height="330" viewBox="0 0 546 330" fill="none" xmlns="http://www.w3.org/2000/svg">
<mask id="mask0_1239_27114" style="mask-type:alpha" maskUnits="userSpaceOnUse" x="0" y="0" width="546" height="330">
<rect width="546" height="330" rx="12" fill="#047FFF"/>
</mask>
<g mask="url(#mask0_1239_27114)">
<g style="mix-blend-mode:luminosity" opacity="0.5">
<path fill-rule="evenodd" clip-rule="evenodd" d="M498.179 147.293L474.358 158.018L459.826 125.739L483.646 115.014L498.179 147.293Z" fill="#FFA07A"/>
<path fill-rule="evenodd" clip-rule="evenodd" d="M483.647 115.014L459.826 125.739L445.987 95.0017L493.453 73.634L499.681 87.4694L521.82 136.648L498.179 147.293L483.647 115.014Z" fill="#FFA07A"/>
<path fill-rule="evenodd" clip-rule="evenodd" d="M459.826 126.398C459.574 126.398 459.334 126.254 459.225 126.01C459.074 125.677 459.223 125.286 459.556 125.136L506.601 103.957C506.932 103.807 507.322 103.955 507.473 104.289C507.623 104.62 507.475 105.01 507.141 105.16L460.096 126.339C460.009 126.38 459.918 126.398 459.826 126.398Z" fill="#D16930"/>
<path fill-rule="evenodd" clip-rule="evenodd" d="M498.179 147.953C497.927 147.953 497.688 147.809 497.578 147.565L469.44 85.0673C469.292 84.734 469.44 84.3439 469.771 84.1935C470.102 84.0452 470.494 84.1935 470.645 84.5247L498.781 147.023C498.931 147.354 498.783 147.746 498.45 147.894C498.362 147.935 498.271 147.953 498.179 147.953Z" fill="#D16930"/>
<path fill-rule="evenodd" clip-rule="evenodd" d="M483.414 115.186C479.379 109.741 480.523 102.056 485.968 98.0208C490.003 103.466 488.859 111.151 483.414 115.186Z" fill="#EB7636"/>
<path fill-rule="evenodd" clip-rule="evenodd" d="M481.327 132.006C477.291 126.56 478.435 118.876 483.881 114.84C487.916 120.286 486.772 127.971 481.327 132.006Z" fill="#EB7636"/>
<path fill-rule="evenodd" clip-rule="evenodd" d="M483.82 115.248C478.375 119.283 470.69 118.139 466.655 112.693C472.1 108.658 479.785 109.802 483.82 115.248Z" fill="#EB7636"/>
<path fill-rule="evenodd" clip-rule="evenodd" d="M500.64 117.335C495.194 121.371 487.51 120.227 483.474 114.781C488.92 110.746 496.604 111.89 500.64 117.335Z" fill="#EB7636"/>
<path fill-rule="evenodd" clip-rule="evenodd" d="M483.595 115.299C476.93 114.076 472.517 107.679 473.742 101.013C480.407 102.238 484.818 108.632 483.595 115.299Z" fill="#FFC46B"/>
<path fill-rule="evenodd" clip-rule="evenodd" d="M493.554 129.014C486.889 127.791 482.476 121.394 483.701 114.728C490.366 115.953 494.777 122.349 493.554 129.014Z" fill="#FFC46B"/>
<path fill-rule="evenodd" clip-rule="evenodd" d="M483.933 115.066C482.71 121.731 476.313 126.144 469.646 124.919C470.872 118.254 477.266 113.843 483.933 115.066Z" fill="#FFC46B"/>
<path fill-rule="evenodd" clip-rule="evenodd" d="M497.647 105.108C496.424 111.772 490.027 116.186 483.36 114.96C484.586 108.296 490.982 103.884 497.647 105.108Z" fill="#FFC46B"/>
<path fill-rule="evenodd" clip-rule="evenodd" d="M483.528 115.116C481.154 112.31 481.504 108.112 484.31 105.739C486.683 108.543 486.334 112.743 483.528 115.116Z" fill="#FFDEAD"/>
<path fill-rule="evenodd" clip-rule="evenodd" d="M482.986 124.291C480.612 121.485 480.962 117.287 483.768 114.914C486.141 117.718 485.792 121.918 482.986 124.291Z" fill="#FFDEAD"/>
<path fill-rule="evenodd" clip-rule="evenodd" d="M483.749 115.135C480.943 117.508 476.745 117.159 474.372 114.353C477.176 111.98 481.376 112.329 483.749 115.135Z" fill="#FFDEAD"/>
<path fill-rule="evenodd" clip-rule="evenodd" d="M492.923 115.676C490.117 118.049 485.919 117.699 483.546 114.893C486.35 112.52 490.55 112.87 492.923 115.676Z" fill="#FFDEAD"/>
<path fill-rule="evenodd" clip-rule="evenodd" d="M514.157 215.596L498.324 207.41L482.489 215.596L466.183 207.166C465.681 206.908 465.484 206.29 465.744 205.788C466.004 205.286 466.62 205.089 467.124 205.349L482.489 213.292L498.324 205.105L514.157 213.292L529.994 205.105L545.832 213.292L561.673 205.105L577.984 213.536C578.485 213.794 578.683 214.412 578.422 214.914C578.164 215.415 577.549 215.613 577.045 215.352L561.673 207.41L545.832 215.596L529.994 207.41L514.157 215.596Z" fill="white"/>
<path fill-rule="evenodd" clip-rule="evenodd" d="M494.096 36.9416C493.448 36.9416 492.846 36.5291 492.635 35.8789C492.375 35.0722 492.818 34.2066 493.624 33.9466L504.942 30.2871C505.747 30.027 506.614 30.4679 506.874 31.2746C507.137 32.0813 506.694 32.9469 505.887 33.2069L494.569 36.8664C494.411 36.9172 494.252 36.9416 494.096 36.9416Z" fill="white"/>
<path fill-rule="evenodd" clip-rule="evenodd" d="M501.585 40.7693C500.937 40.7693 500.335 40.3569 500.124 39.7067L496.467 28.3889C496.204 27.5822 496.647 26.7166 497.454 26.4565C498.259 26.1964 499.126 26.6373 499.386 27.444L503.046 38.7618C503.306 39.5685 502.865 40.4341 502.058 40.6942C501.9 40.745 501.741 40.7693 501.585 40.7693Z" fill="white"/>
<path fill-rule="evenodd" clip-rule="evenodd" d="M303.35 88.9583C302.618 88.9583 301.97 88.432 301.84 87.6863C301.694 86.8512 302.253 86.0567 303.088 85.9104L314.806 83.8704C315.643 83.7241 316.437 84.2849 316.582 85.12C316.728 85.9551 316.167 86.7496 315.332 86.8959L303.614 88.9359C303.527 88.9502 303.437 88.9583 303.35 88.9583Z" fill="white"/>
<path fill-rule="evenodd" clip-rule="evenodd" d="M310.229 93.7972C309.498 93.7972 308.85 93.2709 308.72 92.5252L306.679 80.8071C306.533 79.972 307.094 79.1775 307.927 79.0312C308.764 78.887 309.559 79.4457 309.703 80.2809L311.743 91.9989C311.889 92.8341 311.328 93.6285 310.493 93.7748C310.406 93.7891 310.317 93.7972 310.229 93.7972Z" fill="white"/>
<path fill-rule="evenodd" clip-rule="evenodd" d="M403.114 216.077C402.986 216.077 402.856 216.061 402.726 216.029L391.215 213.036C390.394 212.822 389.902 211.983 390.115 211.162C390.329 210.343 391.168 209.852 391.987 210.063L403.498 213.056C404.319 213.269 404.812 214.108 404.599 214.929C404.418 215.62 403.796 216.077 403.114 216.077Z" fill="#FFF3B5"/>
<path fill-rule="evenodd" clip-rule="evenodd" d="M395.861 220.336C395.733 220.336 395.603 220.32 395.473 220.288C394.654 220.074 394.161 219.235 394.374 218.414L397.367 206.903C397.58 206.082 398.419 205.593 399.238 205.804C400.059 206.017 400.553 206.855 400.338 207.675L397.347 219.186C397.166 219.879 396.544 220.336 395.861 220.336Z" fill="#FFF3B5"/>
<path fill-rule="evenodd" clip-rule="evenodd" d="M593.864 25.8521C580.992 24.0255 572.46 12.856 570.06 0.239805C569.999 -0.0853025 569.459 -0.0771748 569.408 0.247932C567.425 13.2177 558.405 24.0234 545.51 25.8521C545.124 25.907 545.124 26.3561 545.51 26.4109C558.47 28.2498 567.465 39.3055 569.43 52.2387C569.471 52.5109 569.93 52.513 569.975 52.2407C572.1 39.2141 580.898 28.2498 593.864 26.4109C594.252 26.3561 594.252 25.907 593.864 25.8521Z" fill="#FFDC7B"/>
<path fill-rule="evenodd" clip-rule="evenodd" d="M197.399 51.9121C193.603 51.3736 191.086 48.0799 190.379 44.3594C190.36 44.2639 190.202 44.266 190.188 44.3615C189.602 48.1855 186.943 51.3736 183.139 51.9121C183.025 51.9283 183.025 52.0604 183.139 52.0767C186.961 52.6192 189.615 55.8784 190.194 59.6923C190.206 59.7736 190.34 59.7736 190.354 59.6943C190.98 55.852 193.575 52.6192 197.399 52.0767C197.513 52.0604 197.513 51.9283 197.399 51.9121Z" fill="white"/>
<path fill-rule="evenodd" clip-rule="evenodd" d="M410.878 33.3678C403.678 32.3458 398.905 26.0997 397.564 19.0428C397.53 18.862 397.227 18.866 397.199 19.0469C396.089 26.3008 391.044 32.3458 383.833 33.3678C383.617 33.3983 383.617 33.6503 383.833 33.6807C391.083 34.7089 396.112 40.892 397.211 48.1257C397.235 48.2781 397.491 48.2781 397.516 48.1277C398.704 40.8412 403.626 34.7089 410.878 33.6807C411.095 33.6503 411.095 33.3983 410.878 33.3678Z" fill="#9EE8EF"/>
<path fill-rule="evenodd" clip-rule="evenodd" d="M296.092 210.234C292.033 209.659 289.34 206.136 288.584 202.156C288.564 202.054 288.393 202.056 288.379 202.16C287.753 206.25 284.909 209.657 280.841 210.234C280.719 210.253 280.719 210.393 280.841 210.411C284.929 210.99 287.765 214.477 288.385 218.557C288.397 218.643 288.544 218.643 288.558 218.557C289.228 214.449 292.002 210.99 296.092 210.411C296.214 210.393 296.214 210.253 296.092 210.234Z" fill="#B04652"/>
<path fill-rule="evenodd" clip-rule="evenodd" d="M276.05 48.7313C275.758 48.9772 275.591 49.2983 275.518 49.662C275.489 49.8448 275.506 50.0277 275.556 50.2045C275.603 50.3792 275.666 50.5458 275.77 50.7023C275.977 51.0152 276.302 51.2875 276.707 51.4054C277.111 51.5252 277.523 51.4582 277.869 51.2204C278.039 51.1026 278.204 50.9461 278.32 50.7551C278.428 50.5601 278.507 50.3345 278.543 50.0927C278.635 49.6051 278.468 49.1398 278.21 48.8207C277.948 48.4977 277.576 48.3168 277.154 48.3189C276.731 48.3189 276.341 48.4895 276.05 48.7313Z" fill="#F5FFFB"/>
<path fill-rule="evenodd" clip-rule="evenodd" d="M273.358 56.6226C273.888 57.2667 274.965 57.283 275.617 56.5169C276.269 55.7529 276.131 54.7085 275.4 54.2656C274.688 53.8328 273.776 53.9669 273.307 54.5155C272.839 55.0702 272.813 55.9642 273.358 56.6226Z" fill="#F5FFFB"/>
<path fill-rule="evenodd" clip-rule="evenodd" d="M268.374 60.1939C268.734 60.4275 269.203 60.458 269.683 60.3402C270.158 60.2081 270.516 59.8667 270.705 59.5111C270.894 59.1474 270.89 58.7024 270.715 58.3245C270.536 57.9344 270.231 57.6804 269.888 57.5097C269.541 57.3329 269.177 57.3085 268.821 57.4081C268.46 57.4894 268.183 57.7678 267.978 58.0685C267.777 58.3773 267.663 58.7817 267.722 59.2003C267.781 59.6188 268.015 59.9704 268.374 60.1939Z" fill="#F5FFFB"/>
<path fill-rule="evenodd" clip-rule="evenodd" d="M263.481 57.4108C263.123 57.3153 262.761 57.3376 262.414 57.5144C262.068 57.6851 261.766 57.9411 261.587 58.3292C261.414 58.7072 261.41 59.1542 261.599 59.5159C261.788 59.8714 262.146 60.2148 262.621 60.3449C263.103 60.4607 263.572 60.4323 263.93 60.1966C264.289 59.973 264.523 59.6215 264.58 59.2029C264.639 58.7844 264.525 58.38 264.324 58.0712C264.119 57.7725 263.842 57.4921 263.481 57.4108Z" fill="#F5FFFB"/>
<path fill-rule="evenodd" clip-rule="evenodd" d="M256.898 54.2765C256.168 54.7195 256.03 55.7639 256.683 56.5279C257.337 57.2939 258.416 57.2757 258.944 56.6315C259.489 55.9712 259.458 55.0792 258.991 54.5244C258.521 53.9738 257.611 53.8417 256.898 54.2765Z" fill="#F5FFFB"/>
<path fill-rule="evenodd" clip-rule="evenodd" d="M256.523 50.714C256.627 50.5576 256.694 50.3889 256.737 50.2142C256.787 50.0374 256.804 49.8565 256.775 49.6716C256.702 49.3079 256.533 48.9869 256.241 48.743C255.952 48.5012 255.56 48.3306 255.139 48.3306C254.717 48.3306 254.343 48.5114 254.081 48.8345C253.823 49.1555 253.658 49.6188 253.75 50.1065C253.786 50.3503 253.865 50.5738 253.973 50.7689C254.091 50.9599 254.254 51.1163 254.424 51.2342C254.772 51.4699 255.184 51.539 255.589 51.4191C255.993 51.2992 256.318 51.0269 256.523 50.714Z" fill="#F5FFFB"/>
<path fill-rule="evenodd" clip-rule="evenodd" d="M254.746 43.1197C254.517 43.5586 254.562 44.0604 254.706 44.4343C254.852 44.8163 255.183 45.1008 255.588 45.2186C255.994 45.3365 256.394 45.2755 256.752 45.1292C257.116 44.9829 257.349 44.7167 257.528 44.3896C257.815 43.7252 257.595 42.8616 256.886 42.3821C256.199 41.9147 255.155 42.1972 254.746 43.1197Z" fill="#F5FFFB"/>
<path fill-rule="evenodd" clip-rule="evenodd" d="M261.566 38.3184C261.239 37.5483 260.21 37.2334 259.365 37.784C258.524 38.3367 258.368 39.3771 258.945 40.007C259.505 40.6226 260.418 40.7486 261.021 40.3524C261.627 39.9541 261.901 39.1007 261.566 38.3184Z" fill="#F5FFFB"/>
<path fill-rule="evenodd" clip-rule="evenodd" d="M267.699 37.4339C267.76 37.0173 267.634 36.6069 267.352 36.2919C267.071 35.9993 266.632 35.8043 266.139 35.7839C265.647 35.8043 265.208 35.9993 264.928 36.2919C264.645 36.6109 264.521 37.0193 264.582 37.4359C264.643 37.8545 264.865 38.206 265.143 38.4437C265.427 38.7079 265.769 38.8623 266.141 38.8399C266.512 38.8623 266.854 38.7079 267.138 38.4437C267.419 38.2019 267.638 37.8524 267.699 37.4339Z" fill="#F5FFFB"/>
<path fill-rule="evenodd" clip-rule="evenodd" d="M271.261 40.347C271.867 40.7412 272.777 40.6152 273.34 39.9975C273.915 39.3676 273.756 38.3273 272.915 37.7766C272.07 37.226 271.042 37.543 270.715 38.3131C270.381 39.0974 270.658 39.9467 271.261 40.347Z" fill="#F5FFFB"/>
<path fill-rule="evenodd" clip-rule="evenodd" d="M275.535 45.1194C275.893 45.2657 276.295 45.3247 276.699 45.2068C277.106 45.089 277.433 44.8025 277.581 44.4225C277.726 44.0466 277.77 43.5447 277.539 43.1078C277.327 42.6608 276.982 42.3337 276.569 42.2158C276.169 42.0898 275.755 42.1427 275.399 42.3723C274.69 42.8539 274.472 43.7154 274.759 44.3798C274.938 44.707 275.171 44.9731 275.535 45.1194Z" fill="#F5FFFB"/>
<path fill-rule="evenodd" clip-rule="evenodd" d="M364.143 89.5681C362.655 89.5681 361.448 90.7751 361.448 92.2624C361.448 93.7498 362.655 94.9568 364.143 94.9568C365.63 94.9568 366.837 93.7498 366.837 92.2624C366.837 90.7751 365.63 89.5681 364.143 89.5681Z" fill="#B04652"/>
<path fill-rule="evenodd" clip-rule="evenodd" d="M435.721 55.5222C434.234 55.5222 433.027 56.7292 433.027 58.2165C433.027 59.7039 434.234 60.9109 435.721 60.9109C437.209 60.9109 438.416 59.7039 438.416 58.2165C438.416 56.7292 437.209 55.5222 435.721 55.5222Z" fill="#FFDC7B"/>
<path fill-rule="evenodd" clip-rule="evenodd" d="M187.577 207.656C186.089 207.656 184.882 208.863 184.882 210.351C184.882 211.838 186.089 213.045 187.577 213.045C189.064 213.045 190.271 211.838 190.271 210.351C190.271 208.863 189.064 207.656 187.577 207.656Z" fill="#FFDC7B"/>
<path fill-rule="evenodd" clip-rule="evenodd" d="M150.969 16.2161C149.482 16.2161 148.275 17.423 148.275 18.9104C148.275 20.3978 149.482 21.6047 150.969 21.6047C152.456 21.6047 153.663 20.3978 153.663 18.9104C153.663 17.423 152.456 16.2161 150.969 16.2161Z" fill="#FFDC7B"/>
<path fill-rule="evenodd" clip-rule="evenodd" d="M526.839 70.9385C525.352 70.9385 524.145 72.1454 524.145 73.6328C524.145 75.1202 525.352 76.3271 526.839 76.3271C528.326 76.3271 529.533 75.1202 529.533 73.6328C529.533 72.1454 528.326 70.9385 526.839 70.9385Z" fill="#F5FFFB"/>
<path fill-rule="evenodd" clip-rule="evenodd" d="M410.014 97.9092C408.925 97.9092 408.042 98.7931 408.042 99.8822C408.042 100.971 408.925 101.855 410.014 101.855C411.104 101.855 411.987 100.971 411.987 99.8822C411.987 98.7931 411.104 97.9092 410.014 97.9092Z" fill="#F5FFFB"/>
<path fill-rule="evenodd" clip-rule="evenodd" d="M204.401 187.095C202.25 187.095 200.504 188.84 200.504 190.994C200.504 193.146 202.25 194.891 204.401 194.891C206.555 194.891 208.301 193.146 208.301 190.994C208.301 188.84 206.555 187.095 204.401 187.095Z" fill="#F5FFFB"/>
<path fill-rule="evenodd" clip-rule="evenodd" d="M272.684 182.634C271.382 182.634 270.325 183.69 270.325 184.993C270.325 186.295 271.382 187.35 272.684 187.35C273.987 187.35 275.043 186.295 275.043 184.993C275.043 183.69 273.987 182.634 272.684 182.634Z" fill="#FFDC7B"/>
<path fill-rule="evenodd" clip-rule="evenodd" d="M319.336 198.249C312.403 198.249 306.784 192.629 306.784 185.698C306.784 178.765 312.403 173.147 319.336 173.147C326.268 173.147 331.887 178.765 331.887 185.698C331.887 192.629 326.268 198.249 319.336 198.249ZM319.336 169.168C310.207 169.168 302.806 176.569 302.806 185.698C302.806 194.828 310.207 202.228 319.336 202.228C328.465 202.228 335.866 194.828 335.866 185.698C335.866 176.569 328.465 169.168 319.336 169.168Z" fill="#FFDC7B"/>
<path fill-rule="evenodd" clip-rule="evenodd" d="M335.237 160.332L319.39 176.179L335.184 160.332H335.237Z" fill="#52B8C2"/>
<path fill-rule="evenodd" clip-rule="evenodd" d="M335.237 160.331H335.184L325.094 160.314H335.221L335.237 160.331Z" fill="#7EDBE4"/>
<path fill-rule="evenodd" clip-rule="evenodd" d="M335.221 160.314H325.094L329.036 154.273H329.105L335.221 160.314Z" fill="#7EDBE4"/>
<path fill-rule="evenodd" clip-rule="evenodd" d="M335.184 160.332L319.39 176.179L325.09 160.332H335.184Z" fill="#52B8C2"/>
<path fill-rule="evenodd" clip-rule="evenodd" d="M335.184 160.33H325.089L325.095 160.314L335.184 160.33Z" fill="#52B8C2"/>
<path fill-rule="evenodd" clip-rule="evenodd" d="M329.036 154.273L325.095 160.314L319.338 154.273H329.036Z" fill="#80CFD6"/>
<path fill-rule="evenodd" clip-rule="evenodd" d="M319.337 154.273L325.094 160.314H314.028H314.022L319.337 154.273Z" fill="#93EAF2"/>
<path fill-rule="evenodd" clip-rule="evenodd" d="M325.095 160.314L325.089 160.33L314.027 160.314H325.095Z" fill="#7DD2DA"/>
<path fill-rule="evenodd" clip-rule="evenodd" d="M325.09 160.331L319.392 176.178L314.028 160.331L314.022 160.314H314.028L325.09 160.331Z" fill="#7DD2DA"/>
<path fill-rule="evenodd" clip-rule="evenodd" d="M314.028 160.332L319.39 176.179L303.49 160.332H314.028Z" fill="#9EE8EF"/>
<path fill-rule="evenodd" clip-rule="evenodd" d="M319.337 154.273L314.022 160.314L309.653 154.295L309.675 154.273H319.337Z" fill="#7CDEE7"/>
<path fill-rule="evenodd" clip-rule="evenodd" d="M314.022 160.314L314.028 160.33H303.491L314.022 160.314Z" fill="#9EE8EF"/>
<path fill-rule="evenodd" clip-rule="evenodd" d="M309.654 154.296L314.022 160.314L303.491 160.33L309.654 154.296Z" fill="#CCFBFF"/>
<path fill-rule="evenodd" clip-rule="evenodd" d="M309.675 154.273L309.652 154.295L309.636 154.273H309.675Z" fill="#7CDEE7"/>
<path fill-rule="evenodd" clip-rule="evenodd" d="M309.654 154.295L303.491 160.33L309.623 154.273H309.637L309.654 154.295Z" fill="#CCFBFF"/>
<path fill-rule="evenodd" clip-rule="evenodd" d="M36.009 22.8629C35.5884 22.8629 35.1678 22.6902 34.865 22.3509L23.9069 10.1025C23.34 9.47054 23.3949 8.50131 24.0268 7.93644C24.6587 7.36953 25.6279 7.4244 26.1948 8.05632L37.153 20.3047C37.7179 20.9367 37.663 21.9059 37.0311 22.4708C36.7385 22.7349 36.3727 22.8629 36.009 22.8629Z" fill="#FF9999"/>
<path fill-rule="evenodd" clip-rule="evenodd" d="M45.1613 33.0922C44.7407 33.0922 44.3201 32.9195 44.0173 32.5802L38.4742 26.3869C37.9094 25.755 37.9642 24.7837 38.5941 24.2188C39.226 23.654 40.1973 23.7068 40.7622 24.3387L46.3053 30.534C46.8701 31.166 46.8153 32.1352 46.1833 32.7001C45.8907 32.9642 45.525 33.0922 45.1613 33.0922Z" fill="#FF9999"/>
<path fill-rule="evenodd" clip-rule="evenodd" d="M65.4191 24.5384C64.5718 24.5384 63.885 23.8516 63.885 23.0043V7.40527C63.885 6.55796 64.5718 5.86914 65.4191 5.86914C66.2664 5.86914 66.9532 6.55796 66.9532 7.40527V23.0043C66.9532 23.8516 66.2664 24.5384 65.4191 24.5384Z" fill="#FF9999"/>
<path fill-rule="evenodd" clip-rule="evenodd" d="M4.8398 49.6255C4.74024 49.6255 4.63661 49.6153 4.53501 49.595L1.23314 48.9306C0.40209 48.7639 -0.136369 47.9532 0.0302485 47.1222C0.198898 46.2911 1.00557 45.7526 1.83866 45.9213L5.14053 46.5857C5.97158 46.7523 6.51004 47.5611 6.34342 48.3921C6.19712 49.1216 5.55504 49.6255 4.8398 49.6255Z" fill="#FF9999"/>
<path fill-rule="evenodd" clip-rule="evenodd" d="M24.3575 53.5538C24.2579 53.5538 24.1543 53.5436 24.0527 53.5233L8.99413 50.4917C8.16308 50.3251 7.62462 49.5163 7.79123 48.6853C7.95988 47.8542 8.76859 47.3158 9.59964 47.4824L24.6582 50.514C25.4893 50.6806 26.0277 51.4893 25.8611 52.3224C25.7148 53.0499 25.0727 53.5538 24.3575 53.5538Z" fill="#FF9999"/>
<path fill-rule="evenodd" clip-rule="evenodd" d="M7.40063 90.1336C6.78496 90.1336 6.20586 89.7618 5.97016 89.1522C5.66334 88.3618 6.0555 87.4738 6.84592 87.167L26.4743 79.5595C27.2667 79.2527 28.1547 79.6449 28.4615 80.4353C28.7683 81.2257 28.3741 82.1157 27.5837 82.4225L7.95535 90.03C7.77247 90.1011 7.58554 90.1336 7.40063 90.1336Z" fill="#FF9999"/>
<path fill-rule="evenodd" clip-rule="evenodd" d="M35.3699 117.242C34.9899 117.242 34.6119 117.102 34.3153 116.822C33.6996 116.239 33.6732 115.267 34.2564 114.652L40.5797 107.975C41.1629 107.359 42.1341 107.333 42.7498 107.916C43.3655 108.499 43.3919 109.47 42.8087 110.086L36.4854 116.763C36.1826 117.082 35.7762 117.242 35.3699 117.242Z" fill="#FF9999"/>
<path fill-rule="evenodd" clip-rule="evenodd" d="M421.274 148.299H411.767C411.367 148.299 411.042 147.972 411.042 147.573C411.042 147.175 411.367 146.85 411.767 146.85H421.274C421.673 146.85 422 147.175 422 147.573C422 147.972 421.673 148.299 421.274 148.299Z" fill="#7DD2DA"/>
<path fill-rule="evenodd" clip-rule="evenodd" d="M429.02 189.529H403.949C401.736 189.529 399.942 187.735 399.942 185.52V156.1C399.942 153.887 401.736 152.093 403.949 152.093H429.02C431.233 152.093 433.029 153.887 433.029 156.1V185.52C433.029 187.735 431.233 189.529 429.02 189.529Z" fill="#F7CE5C"/>
<path fill-rule="evenodd" clip-rule="evenodd" d="M427.726 187.6H416.628H405.239C403.254 187.6 401.645 185.991 401.645 184.005V157.617C401.645 155.632 403.254 154.022 405.239 154.022H427.726C429.711 154.022 431.321 155.632 431.321 157.617V184.005C431.321 185.991 429.711 187.6 427.726 187.6Z" fill="#FFDC7B"/>
<path fill-rule="evenodd" clip-rule="evenodd" d="M411.836 152.093H421.132V148.297H411.836V152.093Z" fill="#9EF0EF"/>
<path fill-rule="evenodd" clip-rule="evenodd" d="M413.137 146.85H419.832V144.377H413.137V146.85Z" fill="#9EF0EF"/>
<path fill-rule="evenodd" clip-rule="evenodd" d="M425.488 137.324H417.754H415.212H407.481L405.075 139.257V142.443L407.481 144.375H415.212H417.754H425.488L427.891 142.443V139.257L425.488 137.324Z" fill="#9EF0EF"/>
<path fill-rule="evenodd" clip-rule="evenodd" d="M425.488 137.324H417.754H415.212H407.481L405.075 139.257H427.891L425.488 137.324Z" fill="#7DD2DA"/>
<path fill-rule="evenodd" clip-rule="evenodd" d="M407.479 144.376H415.213H417.755H425.486L427.892 142.444H405.076L407.479 144.376Z" fill="#52B8C2"/>
<path fill-rule="evenodd" clip-rule="evenodd" d="M408.043 176.881H424.926V162.042H408.043V176.881Z" fill="white"/>
<path fill-rule="evenodd" clip-rule="evenodd" d="M330.163 43.4351C329.145 43.4351 328.318 44.262 328.318 45.28C328.318 46.298 329.145 47.125 330.163 47.125C331.183 47.125 332.008 46.298 332.008 45.28C332.008 44.262 331.183 43.4351 330.163 43.4351Z" fill="#F5FFFB"/>
</g>
</g>
</svg>
